HIERARCHY
ROOT Hips
{
	OFFSET 0.00000 0.00000 0.00000
	CHANNELS 6 Xposition Yposition Zposition Zrotation Yrotation Xrotation 
	JOINT LHipJoint
	{
		OFFSET 0 0 0
		CHANNELS 3 Zrotation Yrotation Xrotation
		JOINT LeftUpLeg
		{
			OFFSET 1.28858 -1.83292 1.03970
			CHANNELS 3 Zrotation Yrotation Xrotation
			JOINT LeftLeg
			{
				OFFSET 2.47846 -6.80952 0.00000
				CHANNELS 3 Zrotation Yrotation Xrotation
				JOINT LeftFoot
				{
					OFFSET 2.75274 -7.56311 0.00000
					CHANNELS 3 Zrotation Yrotation Xrotation
					JOINT LeftToeBase
					{
						OFFSET 0.12848 -0.35301 1.68223
						CHANNELS 3 Zrotation Yrotation Xrotation
						End Site
						{
							OFFSET 0.00000 -0.00000 0.87311
						}
					}
				}
			}
		}
	}
	JOINT RHipJoint
	{
		OFFSET 0 0 0
		CHANNELS 3 Zrotation Yrotation Xrotation
		JOINT RightUpLeg
		{
			OFFSET -1.31183 -1.83292 1.03970
			CHANNELS 3 Zrotation Yrotation Xrotation
			JOINT RightLeg
			{
				OFFSET -2.44740 -6.72417 0.00000
				CHANNELS 3 Zrotation Yrotation Xrotation
				JOINT RightFoot
				{
					OFFSET -2.67343 -7.34519 0.00000
					CHANNELS 3 Zrotation Yrotation Xrotation
					JOINT RightToeBase
					{
						OFFSET -0.16914 -0.46471 1.77626
						CHANNELS 3 Zrotation Yrotation Xrotation
						End Site
						{
							OFFSET -0.00000 -0.00000 0.92777
						}
					}
				}
			}
		}
	}
	JOINT LowerBack
	{
		OFFSET 0 0 0
		CHANNELS 3 Zrotation Yrotation Xrotation
		JOINT Spine
		{
			OFFSET 0.01249 2.14252 0.03842
			CHANNELS 3 Zrotation Yrotation Xrotation
			JOINT Spine1
			{
				OFFSET -0.02957 2.14199 -0.03751
				CHANNELS 3 Zrotation Yrotation Xrotation
				JOINT Neck
				{
					OFFSET 0 0 0
					CHANNELS 3 Zrotation Yrotation Xrotation
					JOINT Neck1
					{
						OFFSET -0.01678 1.65709 -0.05476
						CHANNELS 3 Zrotation Yrotation Xrotation
						JOINT Head
						{
							OFFSET 0.07912 1.58331 -0.11843
							CHANNELS 3 Zrotation Yrotation Xrotation
							End Site
							{
								OFFSET 0.03298 1.73940 -0.04271
							}
						}
					}
				}
				JOINT LeftShoulder
				{
					OFFSET 0 0 0
					CHANNELS 3 Zrotation Yrotation Xrotation
					JOINT LeftArm
					{
						OFFSET 3.39556 1.16496 0.08673
						CHANNELS 3 Zrotation Yrotation Xrotation
						JOINT LeftForeArm
						{
							OFFSET 5.23910 -0.00000 -0.00000
							CHANNELS 3 Zrotation Yrotation Xrotation
							JOINT LeftHand
							{
								OFFSET 3.31467 -0.00000 0.00000
								CHANNELS 3 Zrotation Yrotation Xrotation
								JOINT LeftFingerBase
								{
									OFFSET 0 0 0
									CHANNELS 3 Zrotation Yrotation Xrotation
									JOINT LeftHandIndex1
									{
										OFFSET 0.96590 -0.00000 0.00000
										CHANNELS 3 Zrotation Yrotation Xrotation
										End Site
										{
											OFFSET 0.77873 -0.00000 0.00000
										}
									}
								}
								JOINT LThumb
								{
									OFFSET 0 0 0
									CHANNELS 3 Zrotation Yrotation Xrotation
									End Site
									{
										OFFSET 0.79062 -0.00000 0.79062
									}
								}
							}
						}
					}
				}
				JOINT RightShoulder
				{
					OFFSET 0 0 0
					CHANNELS 3 Zrotation Yrotation Xrotation
					JOINT RightArm
					{
						OFFSET -3.27193 1.31331 0.33940
						CHANNELS 3 Zrotation Yrotation Xrotation
						JOINT RightForeArm
						{
							OFFSET -5.30252 -0.00000 0.00000
							CHANNELS 3 Zrotation Yrotation Xrotation
							JOINT RightHand
							{
								OFFSET -3.67875 -0.00000 0.00000
								CHANNELS 3 Zrotation Yrotation Xrotation
								JOINT RightFingerBase
								{
									OFFSET 0 0 0
									CHANNELS 3 Zrotation Yrotation Xrotation
									JOINT RightHandIndex1
									{
										OFFSET -0.59481 -0.00000 0.00000
										CHANNELS 3 Zrotation Yrotation Xrotation
										End Site
										{
											OFFSET -0.47955 -0.00000 0.00000
										}
									}
								}
								JOINT RThumb
								{
									OFFSET 0 0 0
									CHANNELS 3 Zrotation Yrotation Xrotation
									End Site
									{
										OFFSET -0.48687 -0.00000 0.48687
									}
								}
							}
						}
					}
				}
			}
		}
	}
}
MOTION
Frames: 15
Frame Time: .0083333
10.4228 21.4526 16.2911 0 0 0 0 0 0 -21 0 0 0 0 0 0 0 0 0 0 0 0 0 0 21 0 0 0 0 0 0 0 0 0 0 0 0 0 0 0 0 0 0 0 0 0 0 -16 0 0 21 0 0 11 0 0 0 -8 0 0 0 0 0 0 0 0 0 0 0 0 0 0 0 0 0 0 0 0 8 0 0 0 0 0 0 0 0 0 0 0 0 0 0 0 0 0
10.4228 21.4526 16.2911 9.6822 0.6544 4.9300 0.0000 0.0000 0.0000 -24.6462 3.8159 1.4070 0.0098 -0.6397 -1.7579 0.1188 -7.6438 -7.6418 0.5700 4.8350 13.4387 0.0000 0.0000 0.0000 5.9893 3.9480 9.2711 -0.0625 1.6129 -4.4370 -0.7524 -6.4775 -19.9922 -2.4800 -9.8014 28.3360 -9.9007 -3.3735 -9.9388 -1.7578 -3.3609 -1.8952 3.2457 -1.7754 4.0421 -12.5294 -17.9694 0.7204 4.3165 -24.6513 14.6953 1.4514 -12.4696 6.4560 0.0000 0.0000 0.0000 -90.1433 3.3828 20.7748 11.9659 -19.7535 -2.0908 -0.0000 0.0000 -3.8348 3.2374 -14.5385 -0.8135 -7.1250 0.0000 -0.0000 -16.3928 15.7879 11.8142 0.0000 0.0000 0.0000 86.1662 -6.2530 33.6175 -12.6228 20.7320 -2.3180 0.0000 0.0000 8.2957 -8.0320 -41.1012 5.2998 7.1250 -0.0000 -0.0000 38.7942 -67.5347 -22.3316
10.4208 21.4471 16.3004 9.3356 0.3768 5.0023 0.0000 0.0000 0.0000 -24.2062 3.4483 1.5760 0.0111 -0.6800 -1.8686 0.1531 -7.1618 -8.0155 0.4868 4.4741 12.4143 0.0000 0.0000 0.0000 6.6057 4.8344 9.5203 -0.0647 1.6408 -4.5139 -0.7927 -7.1316 -20.8771 -2.2887 -9.4431 27.1916 -9.5782 -3.2889 -10.3958 -1.7075 -3.2201 -1.7586 3.1152 -1.7199 4.4087 -13.1159 -16.6763 6.6651 9.9584 -23.5531 5.3237 4.1952 -11.9466 3.2487 0.0000 0.0000 0.0000 -90.0440 3.1756 20.7809 11.9138 -19.6753 -2.0732 -0.0000 0.0000 -3.7993 3.1757 -14.6705 -0.8050 -7.1250 0.0000 -0.0000 -16.4243 15.6636 11.8851 0.0000 0.0000 0.0000 86.2890 -5.9273 33.6739 -12.5480 20.6214 -2.2917 0.0000 0.0000 8.3982 -8.3956 -41.2621 5.5594 7.1250 -0.0000 -0.0000 38.6924 -67.7670 -22.4628
10.4217 21.4453 16.3052 9.1459 0.2391 5.0654 0.0000 0.0000 0.0000 -23.9792 3.3181 1.6259 0.0117 -0.6987 -1.9201 0.1646 -7.0270 -8.1556 0.4539 4.3222 11.9850 0.0000 0.0000 0.0000 6.8937 5.1595 9.5800 -0.0653 1.6490 -4.5365 -0.8236 -7.4713 -21.4294 -2.0868 -9.0445 25.9347 -9.4023 -3.2490 -10.5759 -1.6634 -3.1670 -1.7531 3.0641 -1.6950 4.5011 -12.9821 -16.2535 8.4172 11.0694 -23.0225 2.6026 4.8270 -11.7333 2.2132 0.0000 -0.0000 0.0000 -90.0422 3.1392 20.7664 11.8722 -19.6127 -2.0592 -0.0000 0.0000 -3.7687 3.0269 -14.5029 -0.7587 -7.1250 0.0000 -0.0000 -16.5343 15.8303 11.9096 0.0000 -0.0000 0.0000 86.3078 -5.8822 33.7028 -12.5467 20.6194 -2.2912 0.0000 0.0000 8.4645 -8.6014 -41.3222 5.7036 7.1250 -0.0000 -0.0000 38.5838 -67.8757 -22.4840
10.4222 21.4466 16.2966 9.0024 0.3560 5.2221 0.0000 0.0000 0.0000 -23.7952 3.3762 1.3047 0.0095 -0.6290 -1.7286 0.1452 -7.0953 -7.8533 0.5495 4.7490 13.1939 0.0000 0.0000 0.0000 7.1127 5.3259 9.5135 -0.0643 1.6367 -4.5026 -0.8942 -7.6264 -22.1915 -2.0414 -8.9517 25.6445 -9.2994 -3.2902 -10.4620 -1.6071 -3.2598 -1.9130 3.0625 -1.7270 4.2775 -13.0843 -16.3472 8.3102 10.9713 -23.1621 2.8695 4.7764 -11.8001 2.3262 -0.0000 -0.0000 0.0000 -90.0963 3.2857 20.6208 11.8330 -19.5537 -2.0460 -0.0000 0.0000 -3.5560 2.8223 -14.3092 -0.6981 -7.1250 0.0000 -0.0000 -16.6836 16.0236 11.9539 -0.0000 -0.0000 0.0000 86.2549 -6.0637 33.7616 -12.6229 20.7322 -2.3181 0.0000 0.0000 8.4901 -8.4337 -41.3802 5.5979 7.1250 -0.0000 -0.0000 38.8526 -67.8672 -22.6518
10.4222 21.4468 16.2923 8.8512 0.3969 5.3357 0.0000 0.0000 0.0000 -23.5979 3.3624 1.1110 0.0082 -0.5850 -1.6074 0.1364 -7.0623 -7.6875 0.6238 5.0544 14.0637 0.0000 0.0000 0.0000 7.3592 5.5599 9.5027 -0.0637 1.6278 -4.4782 -0.9482 -7.8162 -22.8113 -1.9785 -8.8211 25.2373 -9.1860 -3.3094 -10.4949 -1.5651 -3.2997 -1.9720 3.0380 -1.7421 4.2346 -13.0651 -16.1569 9.1729 11.5644 -22.9275 1.6107 5.0988 -11.7131 1.8563 0.0000 0.0000 0.0000 -90.1045 3.3098 20.5643 11.7855 -19.4821 -2.0302 -0.0000 0.0000 -3.4447 2.7015 -14.2519 -0.6655 -7.1250 0.0000 -0.0000 -16.7676 16.0830 11.9971 0.0000 0.0000 0.0000 86.2580 -6.0936 33.7991 -12.6717 20.8043 -2.3354 0.0000 0.0000 8.5444 -8.4132 -41.4692 5.5939 7.1250 -0.0000 -0.0000 39.0245 -67.9272 -22.8148
10.4225 21.4479 16.2865 8.7545 0.4786 5.4324 0.0000 0.0000 0.0000 -23.4700 3.3800 0.9011 0.0068 -0.5316 -1.4608 0.1238 -7.0707 -7.4700 0.7230 5.4334 15.1490 0.0000 0.0000 0.0000 7.5156 5.6699 9.4629 -0.0627 1.6155 -4.4441 -0.9910 -7.9326 -23.2665 -1.9287 -8.7160 24.9109 -9.1279 -3.3432 -10.4848 -1.5367 -3.3570 -2.0293 3.0291 -1.7660 4.1737 -12.9826 -16.1137 9.4032 11.6084 -22.8672 1.3473 5.1419 -11.6899 1.7311 -0.0000 -0.0000 0.0000 -90.1160 3.3394 20.5381 11.7352 -19.4064 -2.0135 -0.0000 0.0000 -3.3538 2.5981 -14.2166 -0.6385 -7.1250 0.0000 -0.0000 -16.8386 16.1205 12.0384 -0.0000 -0.0000 0.0000 86.2553 -6.1280 33.8234 -12.7319 20.8931 -2.3568 0.0000 0.0000 8.5946 -8.3234 -41.5465 5.5421 7.1250 -0.0000 -0.0000 39.2477 -67.9568 -22.9862
10.4231 21.4494 16.2808 8.6971 0.5543 5.5020 0.0000 0.0000 0.0000 -23.3947 3.3855 0.7291 0.0056 -0.4817 -1.3236 0.1140 -7.0666 -7.2914 0.8238 5.7912 16.1797 0.0000 0.0000 0.0000 7.6090 5.7202 9.4202 -0.0618 1.6037 -4.4116 -1.0146 -8.0355 -23.5432 -1.8707 -8.5913 24.5250 -9.1056 -3.3753 -10.4689 -1.5226 -3.4066 -2.0649 3.0258 -1.7878 4.1329 -12.9093 -16.1109 9.4247 11.5384 -22.8593 1.3927 5.1155 -11.6855 1.7242 -0.0000 -0.0000 0.0000 -90.1231 3.3539 20.5397 11.6805 -19.3237 -1.9953 -0.0000 0.0000 -3.2793 2.5183 -14.1887 -0.6177 -7.1250 0.0000 -0.0000 -16.8934 16.1500 12.0700 -0.0000 -0.0000 0.0000 86.2588 -6.1302 33.8268 -12.7864 20.9734 -2.3763 0.0000 0.0000 8.6479 -8.1950 -41.6083 5.4625 7.1250 -0.0000 -0.0000 39.4837 -67.9627 -23.1460
10.4241 21.4511 16.2761 8.6578 0.5939 5.5432 0.0000 0.0000 0.0000 -23.3466 3.3613 0.6205 0.0047 -0.4428 -1.2168 0.1101 -7.0341 -7.2056 0.9051 6.0627 16.9666 0.0000 0.0000 0.0000 7.6677 5.7436 9.3814 -0.0612 1.5957 -4.3894 -1.0118 -8.1888 -23.6359 -1.7717 -8.3733 23.8539 -9.0965 -3.3951 -10.4595 -1.5172 -3.4360 -2.0792 3.0227 -1.8012 4.1159 -12.8434 -16.1165 9.3480 11.4346 -22.8607 1.5581 5.0647 -11.6826 1.7661 -0.0000 -0.0000 0.0000 -90.1280 3.3522 20.5530 11.6198 -19.2320 -1.9752 -0.0000 0.0000 -3.2136 2.4665 -14.1984 -0.6053 -7.1250 0.0000 -0.0000 -16.9269 16.1426 12.0991 -0.0000 -0.0000 0.0000 86.2696 -6.0977 33.8065 -12.8258 21.0314 -2.3904 0.0000 0.0000 8.7064 -8.0670 -41.6464 5.3806 7.1250 -0.0000 -0.0000 39.6784 -67.9510 -23.2639
10.4263 21.4529 16.2738 8.6322 0.5994 5.5567 0.0000 0.0000 0.0000 -23.3288 3.3192 0.5874 0.0042 -0.4202 -1.1546 0.1111 -6.9973 -7.2080 0.9541 6.2202 17.4245 0.0000 0.0000 0.0000 7.6751 5.6605 9.3245 -0.0610 1.5936 -4.3838 -0.9775 -8.3664 -23.4841 -1.6141 -8.0113 22.7485 -9.0828 -3.4010 -10.4562 -1.5210 -3.4457 -2.0817 3.0099 -1.8056 4.1116 -12.8222 -16.1104 9.2864 11.4042 -22.8513 1.6691 5.0435 -11.6759 1.8017 0.0000 0.0000 0.0000 -90.1359 3.3496 20.5550 11.5541 -19.1326 -1.9537 -0.0000 0.0000 -3.1345 2.4252 -14.2113 -0.5957 -7.1250 0.0000 -0.0000 -16.9532 16.1317 12.1239 0.0000 0.0000 0.0000 86.2823 -6.0504 33.7718 -12.8465 21.0619 -2.3979 0.0000 0.0000 8.7522 -7.9652 -41.6608 5.3137 7.1250 -0.0000 -0.0000 39.8061 -67.9301 -23.3298
10.4315 21.4548 16.2763 8.6256 0.5773 5.5478 0.0000 0.0000 0.0000 -23.3650 3.3075 0.6299 0.0042 -0.4197 -1.1531 0.1140 -6.9862 -7.2555 0.9711 6.2738 17.5809 0.0000 0.0000 0.0000 7.5823 5.3183 9.1985 -0.0611 1.5949 -4.3874 -0.9130 -8.4913 -23.0319 -1.3750 -7.4206 20.9677 -9.0424 -3.3950 -10.4848 -1.5408 -3.4376 -2.0750 2.9664 -1.8018 4.1301 -12.8380 -16.0953 9.2492 11.4231 -22.8340 1.7260 5.0453 -11.6666 1.8263 0.0000 0.0000 0.0000 -90.1492 3.3585 20.5315 11.4881 -19.0325 -1.9321 -0.0000 0.0000 -3.0301 2.3849 -14.2277 -0.5865 -7.1250 0.0000 -0.0000 -16.9786 16.1175 12.1493 0.0000 0.0000 0.0000 86.2924 -6.0092 33.7391 -12.8546 21.0738 -2.4008 0.0000 0.0000 8.7675 -7.8999 -41.6647 5.2702 7.1250 -0.0000 -0.0000 39.8786 -67.9127 -23.3624
10.4396 21.4569 16.2824 8.6192 0.5715 5.5368 0.0000 0.0000 0.0000 -23.4276 3.3422 0.6968 0.0045 -0.4309 -1.1840 0.1135 -7.0334 -7.2670 0.9785 6.2969 17.6482 0.0000 0.0000 0.0000 7.4291 4.7488 9.0138 -0.0613 1.5975 -4.3946 -0.8476 -8.4407 -22.4160 -1.1559 -6.8259 19.2007 -8.9620 -3.3926 -10.5480 -1.5688 -3.4343 -2.0636 2.8895 -1.8007 4.1707 -12.8616 -16.0758 9.2283 11.4402 -22.8112 1.7579 5.0507 -11.6551 1.8409 0.0000 -0.0000 0.0000 -90.1675 3.3757 20.4893 11.4262 -18.9385 -1.9119 -0.0000 0.0000 -2.9139 2.3676 -14.2497 -0.5831 -7.1250 0.0000 -0.0000 -16.9882 16.0969 12.1649 0.0000 -0.0000 0.0000 86.2996 -5.9815 33.7273 -12.8611 21.0833 -2.4031 0.0000 0.0000 8.7357 -7.9049 -41.6654 5.2737 7.1250 -0.0000 -0.0000 39.8747 -67.9147 -23.3617
10.4502 21.4591 16.2914 8.6381 0.5822 5.5194 0.0000 0.0000 0.0000 -23.5471 3.4290 0.7846 0.0049 -0.4524 -1.2431 0.1087 -7.1274 -7.2230 0.9905 6.3343 17.7575 0.0000 0.0000 0.0000 7.1806 3.9222 8.7559 -0.0612 1.5960 -4.3903 -0.7803 -8.2153 -21.6195 -0.9391 -6.1726 17.2859 -8.8748 -3.3976 -10.6395 -1.6090 -3.4372 -2.0440 2.7932 -1.8035 4.2351 -12.8885 -16.0521 9.2201 11.4454 -22.7834 1.7827 5.0552 -11.6414 1.8497 0.0000 0.0000 0.0000 -90.1896 3.4022 20.4580 11.3708 -18.8544 -1.8940 -0.0000 0.0000 -2.8259 2.3818 -14.3021 -0.5887 -7.1250 0.0000 -0.0000 -16.9748 16.0462 12.1739 0.0000 0.0000 0.0000 86.3003 -5.9729 33.7560 -12.8775 21.1074 -2.4090 0.0000 0.0000 8.6401 -7.9880 -41.6660 5.3296 7.1250 -0.0000 -0.0000 39.7920 -67.9409 -23.3300
10.4619 21.4611 16.3009 8.6824 0.5997 5.4943 0.0000 0.0000 0.0000 -23.7075 3.5350 0.8826 0.0055 -0.4771 -1.3110 0.1017 -7.2423 -7.1486 1.0049 6.3787 17.8872 0.0000 0.0000 0.0000 6.8784 2.9995 8.4744 -0.0605 1.5873 -4.3665 -0.7256 -7.8482 -20.8010 -0.7643 -5.5828 15.5785 -8.8118 -3.4112 -10.7211 -1.6520 -3.4502 -2.0275 2.7064 -1.8111 4.2932 -12.9369 -16.0189 9.2487 11.4674 -22.7479 1.7885 5.0717 -11.6252 1.8506 0.0000 0.0000 0.0000 -90.2156 3.4505 20.4671 11.3229 -18.7814 -1.8786 -0.0000 0.0000 -2.8095 2.4282 -14.3588 -0.6025 -7.1250 0.0000 -0.0000 -16.9399 15.9904 12.1679 0.0000 0.0000 0.0000 86.2846 -5.9977 33.8362 -12.9145 21.1618 -2.4223 0.0000 0.0000 8.4894 -8.1034 -41.6562 5.4061 7.1250 -0.0000 -0.0000 39.6586 -67.9696 -23.2669
10.4717 21.4627 16.3072 8.7370 0.6077 5.4680 0.0000 0.0000 0.0000 -23.8614 3.6065 0.9651 0.0058 -0.4930 -1.3547 0.0959 -7.3365 -7.0884 1.0173 6.4169 17.9991 0.0000 0.0000 0.0000 6.6133 2.2676 8.2533 -0.0597 1.5762 -4.3357 -0.6912 -7.5049 -20.1839 -0.6505 -5.1593 14.3634 -8.7982 -3.4315 -10.7569 -1.6831 -3.4727 -2.0228 2.6605 -1.8227 4.3178 -13.0095 -15.9760 9.3136 11.5220 -22.7050 1.7696 5.1050 -11.6071 1.8441 -0.0000 -0.0000 0.0000 -90.2472 3.5145 20.5102 11.2800 -18.7161 -1.8648 -0.0000 0.0000 -2.8604 2.4916 -14.4157 -0.6207 -7.1250 0.0000 -0.0000 -16.8938 15.9337 12.1535 -0.0000 -0.0000 0.0000 86.2490 -6.0503 33.9625 -12.9740 21.2491 -2.4438 0.0000 0.0000 8.3072 -8.2129 -41.6172 5.4756 7.1250 -0.0000 -0.0000 39.4806 -67.9747 -23.1544
